<svg id="visual" viewBox="0 0 900 600" width="900" height="600" xmlns="http://www.w3.org/2000/svg" xmlns:xlink="http://www.w3.org/1999/xlink" version="1.1"><g stroke-width="1" stroke-linejoin="bevel"><path d="M452 344.9L534 427.6L536 335.9Z" fill="#000000" stroke="#161616"></path><path d="M452 344.9L447 430.6L534 427.6Z" fill="#000000" stroke="#161616"></path><path d="M636 342.9L548 262.1L536 335.9Z" fill="#000000" stroke="#161616"></path><path d="M536 335.9L448 252.1L452 344.9Z" fill="#000000" stroke="#161616"></path><path d="M447 430.6L532 507.3L534 427.6Z" fill="#000000" stroke="#161616"></path><path d="M534 427.6L636 342.9L536 335.9Z" fill="#000000" stroke="#161616"></path><path d="M447 430.6L450 509.3L532 507.3Z" fill="#000000" stroke="#161616"></path><path d="M548 262.1L448 252.1L536 335.9Z" fill="#000000" stroke="#161616"></path><path d="M452 344.9L368 333.9L447 430.6Z" fill="#000000" stroke="#161616"></path><path d="M448 252.1L368 333.9L452 344.9Z" fill="#000000" stroke="#161616"></path><path d="M447 430.6L360 435.6L450 509.3Z" fill="#000000" stroke="#161616"></path><path d="M638 435.6L636 342.9L534 427.6Z" fill="#000000" stroke="#161616"></path><path d="M368 333.9L360 435.6L447 430.6Z" fill="#000000" stroke="#161616"></path><path d="M623 506.3L638 435.6L534 427.6Z" fill="#000000" stroke="#161616"></path><path d="M532 600L623 506.3L532 507.3Z" fill="#000000" stroke="#161616"></path><path d="M532 507.3L623 506.3L534 427.6Z" fill="#000000" stroke="#161616"></path><path d="M448 252.1L367 259.1L368 333.9Z" fill="#000000" stroke="#161616"></path><path d="M269 343.9L278 433.6L360 435.6Z" fill="#000000" stroke="#161616"></path><path d="M636 342.9L625 253.1L548 262.1Z" fill="#000000" stroke="#161616"></path><path d="M548 262.1L535 175.4L448 252.1Z" fill="#000000" stroke="#161616"></path><path d="M360 435.6L352 506.3L450 509.3Z" fill="#000000" stroke="#161616"></path><path d="M278 433.6L352 506.3L360 435.6Z" fill="#000000" stroke="#161616"></path><path d="M627 176.4L535 175.4L548 262.1Z" fill="#000000" stroke="#161616"></path><path d="M448 252.1L450 169.4L367 259.1Z" fill="#000000" stroke="#161616"></path><path d="M535 175.4L450 169.4L448 252.1Z" fill="#000000" stroke="#161616"></path><path d="M441 600L532 600L450 509.3Z" fill="#000000" stroke="#161616"></path><path d="M450 509.3L532 600L532 507.3Z" fill="#000000" stroke="#161616"></path><path d="M367 600L441 600L450 509.3Z" fill="#000000" stroke="#161616"></path><path d="M269 343.9L360 435.6L368 333.9Z" fill="#000000" stroke="#161616"></path><path d="M352 506.3L367 600L450 509.3Z" fill="#000000" stroke="#161616"></path><path d="M728 431.6L722 337.9L636 342.9Z" fill="#000000" stroke="#161616"></path><path d="M636 342.9L718 264.1L625 253.1Z" fill="#000000" stroke="#161616"></path><path d="M728 431.6L636 342.9L638 435.6Z" fill="#000000" stroke="#161616"></path><path d="M272 248.1L368 333.9L367 259.1Z" fill="#000000" stroke="#161616"></path><path d="M272 248.1L269 343.9L368 333.9Z" fill="#000000" stroke="#161616"></path><path d="M712 507.3L638 435.6L623 506.3Z" fill="#000000" stroke="#161616"></path><path d="M712 507.3L728 431.6L638 435.6Z" fill="#000000" stroke="#161616"></path><path d="M718 264.1L627 176.4L625 253.1Z" fill="#000000" stroke="#161616"></path><path d="M625 253.1L627 176.4L548 262.1Z" fill="#000000" stroke="#161616"></path><path d="M535 175.4L453 92.7L450 169.4Z" fill="#000000" stroke="#161616"></path><path d="M634 600L712 507.3L623 506.3Z" fill="#000000" stroke="#161616"></path><path d="M727 172.4L718 264.1L814 248.1Z" fill="#000000" stroke="#161616"></path><path d="M722 337.9L718 264.1L636 342.9Z" fill="#000000" stroke="#161616"></path><path d="M450 169.4L353 172.4L367 259.1Z" fill="#000000" stroke="#161616"></path><path d="M268 600L367 600L352 506.3Z" fill="#000000" stroke="#161616"></path><path d="M532 600L634 600L623 506.3Z" fill="#000000" stroke="#161616"></path><path d="M353 172.4L272 248.1L367 259.1Z" fill="#000000" stroke="#161616"></path><path d="M184 421.6L264 514.3L278 433.6Z" fill="#000000" stroke="#161616"></path><path d="M278 433.6L264 514.3L352 506.3Z" fill="#000000" stroke="#161616"></path><path d="M541 91.7L453 92.7L535 175.4Z" fill="#000000" stroke="#161616"></path><path d="M450 169.4L357 83.7L353 172.4Z" fill="#000000" stroke="#161616"></path><path d="M627 176.4L541 91.7L535 175.4Z" fill="#000000" stroke="#161616"></path><path d="M636 80.7L541 91.7L627 176.4Z" fill="#000000" stroke="#161616"></path><path d="M814 248.1L718 264.1L722 337.9Z" fill="#000000" stroke="#161616"></path><path d="M718 264.1L727 172.4L627 176.4Z" fill="#000000" stroke="#161616"></path><path d="M817 508.3L808 436.6L728 431.6Z" fill="#000000" stroke="#161616"></path><path d="M728 431.6L818 345.9L722 337.9Z" fill="#000000" stroke="#161616"></path><path d="M817 508.3L728 431.6L712 507.3Z" fill="#000000" stroke="#161616"></path><path d="M269 343.9L184 421.6L278 433.6Z" fill="#000000" stroke="#161616"></path><path d="M174 344.9L184 421.6L269 343.9Z" fill="#000000" stroke="#161616"></path><path d="M634 600L728 600L712 507.3Z" fill="#000000" stroke="#161616"></path><path d="M264 514.3L268 600L352 506.3Z" fill="#000000" stroke="#161616"></path><path d="M183 600L268 600L264 514.3Z" fill="#000000" stroke="#161616"></path><path d="M277 82.7L263 164.4L353 172.4Z" fill="#000000" stroke="#161616"></path><path d="M353 172.4L263 164.4L272 248.1Z" fill="#000000" stroke="#161616"></path><path d="M183 265.1L174 344.9L269 343.9Z" fill="#000000" stroke="#161616"></path><path d="M808 436.6L818 345.9L728 431.6Z" fill="#000000" stroke="#161616"></path><path d="M183 265.1L269 343.9L272 248.1Z" fill="#000000" stroke="#161616"></path><path d="M453 92.7L357 83.7L450 169.4Z" fill="#000000" stroke="#161616"></path><path d="M456 0L357 83.7L453 92.7Z" fill="#000000" stroke="#161616"></path><path d="M722 87.7L636 80.7L627 176.4Z" fill="#000000" stroke="#161616"></path><path d="M541 91.7L535 0L453 92.7Z" fill="#000000" stroke="#161616"></path><path d="M186 172.4L183 265.1L272 248.1Z" fill="#000000" stroke="#161616"></path><path d="M818 345.9L814 248.1L722 337.9Z" fill="#000000" stroke="#161616"></path><path d="M727 172.4L722 87.7L627 176.4Z" fill="#000000" stroke="#161616"></path><path d="M728 600L817 508.3L712 507.3Z" fill="#000000" stroke="#161616"></path><path d="M900 428.6L900 339.9L818 345.9Z" fill="#000000" stroke="#161616"></path><path d="M90 421.6L171 508.3L184 421.6Z" fill="#000000" stroke="#161616"></path><path d="M184 421.6L171 508.3L264 514.3Z" fill="#000000" stroke="#161616"></path><path d="M806 91.7L722 87.7L727 172.4Z" fill="#000000" stroke="#161616"></path><path d="M357 83.7L277 82.7L353 172.4Z" fill="#000000" stroke="#161616"></path><path d="M263 164.4L186 172.4L272 248.1Z" fill="#000000" stroke="#161616"></path><path d="M354 0L277 82.7L357 83.7Z" fill="#000000" stroke="#161616"></path><path d="M181 79.7L186 172.4L263 164.4Z" fill="#000000" stroke="#161616"></path><path d="M86 340.9L90 421.6L174 344.9Z" fill="#000000" stroke="#161616"></path><path d="M900 249.1L817 174.4L814 248.1Z" fill="#000000" stroke="#161616"></path><path d="M814 248.1L817 174.4L727 172.4Z" fill="#000000" stroke="#161616"></path><path d="M627 0L541 91.7L636 80.7Z" fill="#000000" stroke="#161616"></path><path d="M627 0L535 0L541 91.7Z" fill="#000000" stroke="#161616"></path><path d="M535 0L456 0L453 92.7Z" fill="#000000" stroke="#161616"></path><path d="M171 508.3L183 600L264 514.3Z" fill="#000000" stroke="#161616"></path><path d="M728 600L817 600L817 508.3Z" fill="#000000" stroke="#161616"></path><path d="M900 428.6L818 345.9L808 436.6Z" fill="#000000" stroke="#161616"></path><path d="M718 0L636 80.7L722 87.7Z" fill="#000000" stroke="#161616"></path><path d="M718 0L627 0L636 80.7Z" fill="#000000" stroke="#161616"></path><path d="M818 345.9L900 339.9L814 248.1Z" fill="#000000" stroke="#161616"></path><path d="M900 428.6L808 436.6L817 508.3Z" fill="#000000" stroke="#161616"></path><path d="M900 520.3L900 428.6L817 508.3Z" fill="#000000" stroke="#161616"></path><path d="M456 0L354 0L357 83.7Z" fill="#000000" stroke="#161616"></path><path d="M97 167.4L183 265.1L186 172.4Z" fill="#000000" stroke="#161616"></path><path d="M174 344.9L90 421.6L184 421.6Z" fill="#000000" stroke="#161616"></path><path d="M171 508.3L88 516.3L183 600Z" fill="#000000" stroke="#161616"></path><path d="M86 340.9L174 344.9L183 265.1Z" fill="#000000" stroke="#161616"></path><path d="M83 262.1L86 340.9L183 265.1Z" fill="#000000" stroke="#161616"></path><path d="M817 174.4L806 91.7L727 172.4Z" fill="#000000" stroke="#161616"></path><path d="M900 166.4L806 91.7L817 174.4Z" fill="#000000" stroke="#161616"></path><path d="M900 339.9L900 249.1L814 248.1Z" fill="#000000" stroke="#161616"></path><path d="M817 600L900 520.3L817 508.3Z" fill="#000000" stroke="#161616"></path><path d="M97 167.4L83 262.1L183 265.1Z" fill="#000000" stroke="#161616"></path><path d="M181 79.7L263 164.4L277 82.7Z" fill="#000000" stroke="#161616"></path><path d="M0 435.6L88 516.3L90 421.6Z" fill="#000000" stroke="#161616"></path><path d="M90 421.6L88 516.3L171 508.3Z" fill="#000000" stroke="#161616"></path><path d="M83 600L88 516.3L0 511.3Z" fill="#000000" stroke="#161616"></path><path d="M268 0L181 79.7L277 82.7Z" fill="#000000" stroke="#161616"></path><path d="M803 0L718 0L722 87.7Z" fill="#000000" stroke="#161616"></path><path d="M354 0L268 0L277 82.7Z" fill="#000000" stroke="#161616"></path><path d="M181 79.7L97 167.4L186 172.4Z" fill="#000000" stroke="#161616"></path><path d="M900 249.1L900 166.4L817 174.4Z" fill="#000000" stroke="#161616"></path><path d="M806 91.7L803 0L722 87.7Z" fill="#000000" stroke="#161616"></path><path d="M817 600L900 600L900 520.3Z" fill="#000000" stroke="#161616"></path><path d="M0 341.9L90 421.6L86 340.9Z" fill="#000000" stroke="#161616"></path><path d="M88 516.3L83 600L183 600Z" fill="#000000" stroke="#161616"></path><path d="M900 76.7L803 0L806 91.7Z" fill="#000000" stroke="#161616"></path><path d="M268 0L175 0L181 79.7Z" fill="#000000" stroke="#161616"></path><path d="M181 79.7L86 80.7L97 167.4Z" fill="#000000" stroke="#161616"></path><path d="M0 251.1L0 341.9L83 262.1Z" fill="#000000" stroke="#161616"></path><path d="M83 262.1L0 341.9L86 340.9Z" fill="#000000" stroke="#161616"></path><path d="M0 251.1L83 262.1L0 174.4Z" fill="#000000" stroke="#161616"></path><path d="M0 341.9L0 435.6L90 421.6Z" fill="#000000" stroke="#161616"></path><path d="M900 166.4L900 76.7L806 91.7Z" fill="#000000" stroke="#161616"></path><path d="M97 0L86 80.7L181 79.7Z" fill="#000000" stroke="#161616"></path><path d="M0 174.4L83 262.1L97 167.4Z" fill="#000000" stroke="#161616"></path><path d="M0 435.6L0 511.3L88 516.3Z" fill="#000000" stroke="#161616"></path><path d="M86 80.7L0 174.4L97 167.4Z" fill="#000000" stroke="#161616"></path><path d="M0 511.3L0 600L83 600Z" fill="#000000" stroke="#161616"></path><path d="M175 0L97 0L181 79.7Z" fill="#000000" stroke="#161616"></path><path d="M86 80.7L0 76.7L0 174.4Z" fill="#000000" stroke="#161616"></path><path d="M900 76.7L900 0L803 0Z" fill="#000000" stroke="#161616"></path><path d="M0 0L0 76.7L86 80.7Z" fill="#000000" stroke="#161616"></path><path d="M97 0L0 0L86 80.7Z" fill="#000000" stroke="#161616"></path></g></svg>