<svg id="visual" viewBox="0 0 900 114" width="900" height="114" xmlns="http://www.w3.org/2000/svg" xmlns:xlink="http://www.w3.org/1999/xlink" version="1.1">
    <path d="M0 122L16.7 118.8C33.3 115.7 66.7 109.3 100 108C133.3 106.7 166.7 110.3 200 109.5C233.3 108.7 266.7 103.3 300 100C333.3 96.7 366.7 95.3 400 99.7C433.3 104 466.7 114 500 114.2C533.3 114.3 566.7 104.7 600 101.8C633.3 99 666.7 103 700 103C733.3 103 766.7 99 800 97C833.3 95 866.7 95 883.3 95L900 95L900 0L883.3 0C866.7 0 833.3 0 800 0C766.7 0 733.3 0 700 0C666.7 0 633.3 0 600 0C566.7 0 533.3 0 500 0C466.7 0 433.3 0 400 0C366.7 0 333.3 0 300 0C266.7 0 233.3 0 200 0C166.7 0 133.3 0 100 0C66.7 0 33.3 0 16.7 0L0 0Z" fill="#363535"></path><path d="M0 79L16.7 76.7C33.3 74.3 66.7 69.7 100 67.7C133.3 65.7 166.7 66.3 200 71C233.3 75.7 266.7 84.3 300 83.8C333.3 83.3 366.7 73.7 400 69.5C433.3 65.3 466.7 66.7 500 67.5C533.3 68.3 566.7 68.7 600 68.2C633.3 67.7 666.7 66.3 700 65.3C733.3 64.3 766.7 63.7 800 65.7C833.3 67.7 866.7 72.3 883.3 74.7L900 77L900 0L883.3 0C866.7 0 833.3 0 800 0C766.7 0 733.3 0 700 0C666.7 0 633.3 0 600 0C566.7 0 533.3 0 500 0C466.7 0 433.3 0 400 0C366.7 0 333.3 0 300 0C266.7 0 233.3 0 200 0C166.7 0 133.3 0 100 0C66.7 0 33.3 0 16.7 0L0 0Z" fill="#1e1e1e"></path><path d="M0 33L16.7 33.3C33.3 33.7 66.7 34.3 100 36.2C133.3 38 166.7 41 200 42.5C233.3 44 266.7 44 300 45.5C333.3 47 366.7 50 400 49C433.3 48 466.7 43 500 42C533.3 41 566.7 44 600 45.7C633.3 47.3 666.7 47.7 700 47.8C733.3 48 766.7 48 800 45.3C833.3 42.7 866.7 37.3 883.3 34.7L900 32L900 0L883.3 0C866.7 0 833.3 0 800 0C766.7 0 733.3 0 700 0C666.7 0 633.3 0 600 0C566.7 0 533.3 0 500 0C466.7 0 433.3 0 400 0C366.7 0 333.3 0 300 0C266.7 0 233.3 0 200 0C166.7 0 133.3 0 100 0C66.7 0 33.3 0 16.7 0L0 0Z" fill="#000000">
    </path>
</svg>